<svg width="1135" height="124" viewBox="0 0 1135 124" fill="none" xmlns="http://www.w3.org/2000/svg">
<path d="M0 25.2598V124H142V25.2598C130.575 26.0079 122.414 26.977 108.54 16.2478C79.569 -6.15749 61.6149 -4.66151 33.4598 16.2477C20.7345 25.698 5.71264 25.0105 0 25.2598Z" fill="#FF5555" fill-opacity="0.1"/>
<path d="M142 25.2598V124H284V25.2598C272.575 26.0079 264.414 26.977 250.54 16.2478C221.569 -6.15749 203.615 -4.66151 175.46 16.2477C162.735 25.698 147.713 25.0105 142 25.2598Z" fill="#FF5555" fill-opacity="0.1"/>
<path d="M284 25.2598V124H426V25.2598C414.575 26.0079 406.414 26.977 392.54 16.2478C363.569 -6.15749 345.615 -4.66151 317.46 16.2477C304.735 25.698 289.713 25.0105 284 25.2598Z" fill="#FF5555" fill-opacity="0.1"/>
<path d="M426 25.2598V124H568V25.2598C556.575 26.0079 548.414 26.9771 534.54 16.2478C505.569 -6.15746 487.615 -4.66148 459.46 16.2477C446.735 25.698 431.713 25.0105 426 25.2598Z" fill="#FF5555" fill-opacity="0.1"/>
<path d="M568 25.2598V124H710V25.2598C698.575 26.0079 690.414 26.9771 676.54 16.2478C647.569 -6.15746 629.615 -4.66148 601.46 16.2477C588.735 25.698 573.713 25.0105 568 25.2598Z" fill="#FF5555" fill-opacity="0.1"/>
<path d="M710 25.2598V124H851V25.2598C839.655 26.0079 831.552 26.9771 817.776 16.2478C789.009 -6.15746 771.181 -4.66148 743.224 16.2477C730.589 25.698 715.672 25.0105 710 25.2598Z" fill="#FF5555" fill-opacity="0.1"/>
<path d="M851 25.2598V124H994V25.2598C982.494 26.0079 974.276 26.9771 960.305 16.2478C931.129 -6.15746 913.049 -4.66148 884.695 16.2477C871.881 25.698 856.753 25.0105 851 25.2598Z" fill="#FF5555" fill-opacity="0.1"/>
<path d="M994 25.2598V124H1135V25.2598C1123.66 26.0079 1115.55 26.9771 1101.78 16.2478C1073.01 -6.15746 1055.18 -4.66148 1027.22 16.2477C1014.59 25.698 999.672 25.0105 994 25.2598Z" fill="#FF5555" fill-opacity="0.1"/>
</svg>
