<svg width="32" height="34" viewBox="0 0 32 34" fill="none" xmlns="http://www.w3.org/2000/svg">
<path fill-rule="evenodd" clip-rule="evenodd" d="M24.1847 0.0881619C23.6455 -0.0862495 22.9545 -0.0162321 22.4784 0.427695C22 0.00308563 21.3329 -0.0902394 20.7838 0.0882734C19.5314 0.494654 19.1455 1.95101 19.4949 3.0503C19.776 3.93213 20.3822 4.58363 20.9687 5.01115C21.263 5.22575 21.558 5.38816 21.8153 5.49792C22.0629 5.60351 22.3048 5.67302 22.486 5.67302C22.6681 5.67302 22.9116 5.60176 23.1598 5.49493C23.4181 5.38373 23.7143 5.21964 24.0094 5.00399C24.5966 4.57486 25.2036 3.92323 25.4765 3.04925C25.8253 1.94954 25.4363 0.494282 24.1847 0.0881619ZM23.6252 1.2013C23.4622 1.18442 23.3165 1.30393 23.2998 1.46823C23.283 1.63253 23.4016 1.7794 23.5646 1.79628C23.6689 1.80708 23.7395 1.85081 23.7859 1.90996C23.8342 1.97154 23.8719 2.07058 23.8672 2.21306C23.8617 2.37813 23.99 2.51644 24.1538 2.52198C24.3175 2.52752 24.4547 2.39819 24.4602 2.23312C24.4689 1.97458 24.4012 1.73001 24.2513 1.53897C24.0996 1.34549 23.8791 1.22759 23.6252 1.2013ZM25.9712 15.0624C25.9676 16.4014 25.9638 17.8223 25.7515 19.2863L24.2937 23.7119L24.3096 23.7172C24.2377 23.8486 24.1626 23.98 24.0842 24.1114C17.3057 34.3821 4.92001 25.3414 6.22878 20.316C6.9081 18.509 8.91659 18.2988 10.1982 18.9942C10.603 19.3303 10.9539 19.8033 11.3311 20.3118L11.3312 20.312C11.3902 20.3916 11.4499 20.472 11.5105 20.5529C11.683 20.8247 11.8978 21.1083 12.199 21.4078C12.6353 21.8954 13.1481 22.3497 13.8084 22.681C14.2072 22.8993 14.6265 23.0515 15.0462 23.1466C16.1221 23.4689 17.0274 23.3806 17.7736 23.055C19.797 22.3929 21.1206 19.3394 20.8277 15.9776C20.7273 10.9041 17.0808 7.4788 13.0444 6.43165C12.3645 6.24065 11.673 6.13278 10.9812 6.10036C10.849 6.07563 10.7152 6.05215 10.5799 6.02995C-1.18151 6.02981 -3.53413 22.7722 5.52956 30.5208C11.9091 35.9747 25.4687 35.6729 30.1501 24.8758C31.8067 21.7221 31.702 18.3512 31.5352 12.9855V12.9854L31.5352 12.9846L31.5351 12.9831L31.5351 12.9821L31.5351 12.9816C31.5154 12.3491 31.4949 11.6889 31.4763 10.9981V6.44507C30.3418 6.42762 28.2377 6.93592 26.9456 8.81582C26.821 8.9806 26.7058 9.1556 26.602 9.34129C26.1501 9.92107 25.7048 11.1513 25.9804 13.8621C25.9734 14.2539 25.9723 14.6543 25.9712 15.0624Z" fill="url(#paint0_linear_607_3571)"/>
<defs>
<linearGradient id="paint0_linear_607_3571" x1="4.25372" y1="4.06903e-05" x2="4.25372" y2="34.0002" gradientUnits="userSpaceOnUse">
<stop stop-color="#FDAE8F"/>
<stop offset="1" stop-color="#FD1C68"/>
</linearGradient>
</defs>
</svg>
