<svg width="145" height="43" viewBox="0 0 145 43" fill="none" xmlns="http://www.w3.org/2000/svg">
<path d="M60.8008 33.5C58.6133 34.7604 55.8945 35.3906 52.6445 35.3906C49.0404 35.3906 46.1966 34.3958 44.1133 32.4062C42.0404 30.4062 41.0039 27.6562 41.0039 24.1562C41.0039 20.6354 42.1393 17.7656 44.4102 15.5469C46.681 13.3281 49.7018 12.2188 53.4727 12.2188C55.8477 12.2188 57.9414 12.5469 59.7539 13.2031V17.9375C58.0247 16.9375 55.9102 16.4375 53.4102 16.4375C51.3164 16.4375 49.6081 17.1198 48.2852 18.4844C46.9727 19.8385 46.3164 21.651 46.3164 23.9219C46.3164 26.224 46.9049 28.0052 48.082 29.2656C49.2695 30.526 50.8685 31.1562 52.8789 31.1562C54.0872 31.1562 55.0456 30.9844 55.7539 30.6406V26.2656H51.2695V22.2344H60.8008V33.5ZM66.5358 16.4688C65.7024 16.4688 65.0202 16.224 64.4889 15.7344C63.9577 15.2344 63.692 14.625 63.692 13.9062C63.692 13.1667 63.9577 12.5625 64.4889 12.0938C65.0202 11.625 65.7024 11.3906 66.5358 11.3906C67.3795 11.3906 68.0618 11.625 68.5827 12.0938C69.1139 12.5625 69.3795 13.1667 69.3795 13.9062C69.3795 14.6562 69.1139 15.2708 68.5827 15.75C68.0618 16.2292 67.3795 16.4688 66.5358 16.4688ZM68.9733 35H64.0358V19H68.9733V35ZM82.1614 34.8125C81.4322 35.1979 80.3333 35.3906 78.8645 35.3906C75.3854 35.3906 73.6458 33.5833 73.6458 29.9688V22.6406H71.052V19H73.6458V15.5469L78.5677 14.1406V19H82.1614V22.6406H78.5677V29.1094C78.5677 30.776 79.2291 31.6094 80.552 31.6094C81.0729 31.6094 81.6093 31.4583 82.1614 31.1562V34.8125ZM104.193 35H99.1308V25.875H89.8495V35H84.8027V12.5938H89.8495V21.5312H99.1308V12.5938H104.193V35ZM123.413 35H118.491V32.5625H118.413C117.194 34.4479 115.564 35.3906 113.522 35.3906C109.814 35.3906 107.96 33.1458 107.96 28.6562V19H112.881V28.2188C112.881 30.4792 113.777 31.6094 115.569 31.6094C116.454 31.6094 117.163 31.3021 117.694 30.6875C118.225 30.0625 118.491 29.2188 118.491 28.1562V19H123.413V35ZM131.945 33.1406H131.882V35H126.945V11.3125H131.882V21.4062H131.945C133.163 19.5417 134.898 18.6094 137.148 18.6094C139.21 18.6094 140.799 19.3177 141.913 20.7344C143.028 22.151 143.585 24.0885 143.585 26.5469C143.585 29.2135 142.934 31.3542 141.632 32.9688C140.33 34.5833 138.59 35.3906 136.413 35.3906C134.445 35.3906 132.955 34.6406 131.945 33.1406ZM131.804 26.3906V28.0312C131.804 29.0625 132.101 29.9167 132.695 30.5938C133.288 31.2708 134.049 31.6094 134.976 31.6094C136.101 31.6094 136.971 31.1771 137.585 30.3125C138.21 29.4375 138.523 28.2031 138.523 26.6094C138.523 25.2865 138.236 24.2552 137.663 23.5156C137.101 22.7656 136.293 22.3906 135.241 22.3906C134.252 22.3906 133.429 22.7604 132.773 23.5C132.127 24.2396 131.804 25.2031 131.804 26.3906Z" fill="#FF5555" fill-opacity="0.4"/>
<path d="M15.8477 8.66733C12.2395 8.63066 8.76438 10.0281 6.18607 12.5525C3.60776 15.0769 2.13723 18.5217 2.09766 22.1298C2.11156 24.9813 3.02884 27.755 4.71773 30.0525C6.40663 32.35 8.78025 34.0532 11.4977 34.9173C12.1852 35.0423 12.4352 34.6298 12.4352 34.2673C12.4352 33.9048 12.4352 33.1048 12.4352 31.9798C8.61016 32.7923 7.79766 30.1798 7.79766 30.1798C7.54303 29.3597 7.0017 28.6586 6.27266 28.2048C5.02266 27.3798 6.37266 27.3923 6.37266 27.3923C6.80472 27.4501 7.2181 27.6049 7.58179 27.8452C7.94549 28.0855 8.25005 28.405 8.47266 28.7798C8.86057 29.4525 9.49707 29.9459 10.2452 30.154C10.9933 30.3621 11.7931 30.2681 12.4727 29.8923C12.5425 29.2078 12.8525 28.5701 13.3477 28.0923C10.2977 27.7548 7.09766 26.6048 7.09766 21.4423C7.07038 20.0957 7.56796 18.7912 8.48516 17.8048C8.06744 16.6487 8.11676 15.3752 8.62266 14.2548C8.62266 14.2548 9.78516 13.8923 12.3727 15.6298C14.625 15.0296 16.9953 15.0296 19.2477 15.6298C21.8727 13.8923 22.9977 14.2548 22.9977 14.2548C23.5035 15.3752 23.5529 16.6487 23.1352 17.8048C24.0737 18.7731 24.5982 20.0688 24.5977 21.4173C24.5977 26.5923 21.3727 27.7298 18.3477 28.0673C18.6789 28.3889 18.9347 28.7799 19.0968 29.2122C19.2589 29.6444 19.3233 30.1072 19.2852 30.5673V34.2548C19.2852 34.2548 19.5352 35.0423 20.2227 34.9048C22.9324 34.0353 25.298 32.3318 26.9816 30.0375C28.6653 27.7432 29.5809 24.9756 29.5977 22.1298C29.5581 18.5217 28.0875 15.0769 25.5092 12.5525C22.9309 10.0281 19.4558 8.63066 15.8477 8.66733Z" fill="#FF5555" fill-opacity="0.4"/>
</svg>
