<svg width="123" height="31" viewBox="0 0 123 31" fill="none" xmlns="http://www.w3.org/2000/svg">
<g clip-path="url(#clip0_2728_644)">
<path d="M120.799 26.4057C120.262 26.4109 119.75 26.6283 119.373 27.0103C118.997 27.3923 118.787 27.9079 118.789 28.4443C118.792 28.9807 119.007 29.4943 119.387 29.8726C119.767 30.251 120.282 30.4635 120.818 30.4635C121.355 30.4635 121.869 30.251 122.249 29.8726C122.63 29.4943 122.844 28.9807 122.847 28.4443C122.85 27.9079 122.64 27.3923 122.263 27.0103C121.887 26.6283 121.374 26.4109 120.838 26.4057H120.799ZM120.799 30.2312C120.447 30.237 120.101 30.1384 119.805 29.9478C119.51 29.7572 119.277 29.4832 119.137 29.1604C118.997 28.8376 118.956 28.4806 119.019 28.1344C119.081 27.7882 119.246 27.4684 119.49 27.2155C119.735 26.9625 120.049 26.7879 120.393 26.7135C120.737 26.6391 121.095 26.6684 121.422 26.7976C121.75 26.9268 122.031 27.1502 122.232 27.4394C122.432 27.7287 122.542 28.0709 122.548 28.4227V28.4526C122.558 28.9141 122.384 29.3606 122.065 29.694C121.745 30.0274 121.307 30.2203 120.845 30.2303H120.799L120.799 30.2312ZM113.01 25.8514H108.602V18.9473C108.602 17.3009 108.572 15.1816 106.309 15.1816C104.013 15.1816 103.661 16.9753 103.661 18.8274V25.851H99.2527V11.6533H103.485V13.5935H103.544C103.968 12.8693 104.58 12.2736 105.315 11.8697C106.051 11.4659 106.882 11.269 107.72 11.3001C112.188 11.3001 113.012 14.2392 113.012 18.0628L113.01 25.8514ZM94.2782 9.71254C93.7722 9.71263 93.2776 9.56267 92.8568 9.28163C92.436 9.00058 92.108 8.60108 91.9143 8.13362C91.7206 7.66617 91.6698 7.15177 91.7685 6.65547C91.8671 6.15918 92.1107 5.70327 92.4684 5.34541C92.8261 4.98754 93.2819 4.7438 93.7782 4.64499C94.2745 4.54619 94.7889 4.59676 95.2564 4.79031C95.7239 4.98387 96.1236 5.31171 96.4048 5.73239C96.686 6.15307 96.8361 6.64768 96.8362 7.15368C96.8362 7.48966 96.7701 7.82235 96.6416 8.13277C96.5131 8.4432 96.3247 8.72527 96.0872 8.96288C95.8496 9.20049 95.5676 9.38899 95.2573 9.51762C94.9469 9.64625 94.6142 9.71248 94.2782 9.71254V9.71254ZM96.4826 25.8514H92.0693V11.6533H96.4826V25.8514ZM115.208 0.50166H89.854C89.2785 0.495166 88.724 0.717406 88.3123 1.11955C87.9006 1.52168 87.6654 2.07082 87.6584 2.64629V28.1058C87.6651 28.6816 87.9002 29.2311 88.3119 29.6337C88.7236 30.0362 89.2782 30.2589 89.854 30.2528H115.208C115.785 30.26 116.341 30.038 116.755 29.6354C117.168 29.2329 117.405 28.6827 117.413 28.1058V2.64445C117.404 2.06784 117.168 1.51808 116.754 1.11595C116.341 0.713824 115.785 0.492218 115.208 0.499823V0.50166ZM75.659 15.0801C73.4547 15.0801 72.1321 16.5519 72.1321 18.6966C72.1321 20.8412 73.4542 22.3144 75.659 22.3144C77.8638 22.3144 79.1891 20.8449 79.1891 18.6966C79.1891 16.5483 77.8661 15.0801 75.659 15.0801V15.0801ZM83.2479 25.8432H79.1891V23.9603H79.129C78.6198 24.6452 77.9594 25.2032 77.1991 25.591C76.4389 25.9788 75.5994 26.1858 74.746 26.1959C70.5101 26.1959 67.7198 23.1387 67.7198 18.8155C67.7198 14.845 70.1891 11.1991 74.2482 11.1991C76.0728 11.1991 77.777 11.6983 78.7768 13.082H78.8346V4.89792H83.2474L83.2479 25.8432ZM62.0592 17.0957C62.0676 16.738 62.0034 16.3823 61.8703 16.0502C61.7373 15.7181 61.5382 15.4165 61.2851 15.1636C61.032 14.9107 60.7303 14.7118 60.3981 14.579C60.0659 14.4461 59.7102 14.3821 59.3525 14.3908C58.5822 14.3428 57.8239 14.5995 57.2411 15.1055C56.6583 15.6115 56.2977 16.3263 56.237 17.0957H62.0592ZM65.7937 23.3872C65.0611 24.2756 64.1401 24.9899 63.0974 25.4785C62.0547 25.967 60.9164 26.2176 59.7649 26.2119C55.3562 26.2119 51.8265 23.2692 51.8265 18.7122C51.8265 14.1552 55.3558 11.2138 59.7649 11.2138C63.8856 11.2138 66.4697 14.1529 66.4697 18.7122V20.0945H56.237C56.3644 20.8784 56.7709 21.5899 57.3814 22.0979C57.992 22.6058 58.7656 22.876 59.5596 22.8586C60.1871 22.8547 60.8037 22.6939 61.3532 22.3909C61.9027 22.0879 62.3677 21.6522 62.7058 21.1236L65.7937 23.3872ZM21.9671 11.6496H26.2007V13.5899H26.2609C26.6838 12.8654 27.2955 12.2693 28.0307 11.8654C28.7659 11.4615 29.5971 11.2648 30.4354 11.2964C34.906 11.2964 35.729 14.2378 35.729 18.0591V25.845H31.3203V18.9423C31.3203 17.2945 31.29 15.1765 29.0241 15.1765C26.7325 15.1765 26.3789 16.9708 26.3789 18.8224V25.8432H21.9703L21.9671 11.6496ZM37.9645 4.8993H42.3732V17.4203L47.3697 11.6418H52.7749L46.9885 18.2148L52.6532 25.8519H47.112L42.432 18.8339H42.3741V25.851H37.9654L37.9645 4.8993ZM15.1139 11.6482H19.5226V25.8459H15.1139V11.6482ZM17.3182 4.58977C17.824 4.58986 18.3184 4.73993 18.739 5.02101C19.1595 5.30208 19.4872 5.70154 19.6807 6.16887C19.8742 6.63619 19.9248 7.1504 19.826 7.64647C19.7273 8.14255 19.4837 8.5982 19.126 8.95583C18.7683 9.31345 18.3126 9.55698 17.8165 9.65563C17.3204 9.75427 16.8062 9.7036 16.3389 9.51001C15.8717 9.31643 15.4723 8.98863 15.1913 8.56807C14.9103 8.1475 14.7603 7.65306 14.7603 7.14725C14.7603 6.81136 14.8264 6.47876 14.955 6.16844C15.0836 5.85812 15.272 5.57617 15.5095 5.33868C15.747 5.10119 16.029 4.91282 16.3394 4.78432C16.6497 4.65582 16.9823 4.58971 17.3182 4.58977V4.58977ZM0 4.90251H4.58914V21.6187H13.085V25.8537H0V4.90251ZM121.121 28.5632C121.196 28.564 121.271 28.5492 121.34 28.5198C121.41 28.4905 121.473 28.4471 121.525 28.3925C121.577 28.3378 121.617 28.2731 121.643 28.2022C121.669 28.1313 121.681 28.0558 121.676 27.9805C121.676 27.5671 121.427 27.3697 120.915 27.3697H120.089V29.5336H120.4V28.5903H120.782L120.79 28.6018L121.383 29.5336H121.716L121.078 28.5692L121.121 28.5632ZM120.761 28.3465H120.4V27.6149H120.857C121.093 27.6149 121.363 27.6535 121.363 27.9625C121.363 28.318 121.09 28.3465 120.759 28.3465" fill="#B1BAED" fill-opacity="0.4"/>
</g>
<defs>
<clipPath id="clip0_2728_644">
<rect width="122.847" height="30" fill="white" transform="translate(0 0.5)"/>
</clipPath>
</defs>
</svg>
