<svg width="143" height="35" viewBox="0 0 143 35" fill="none" xmlns="http://www.w3.org/2000/svg">
<path d="M14.8476 0.755615C7.12005 0.755615 0.847656 7.74156 0.847656 16.3482C0.847656 24.9736 7.12005 31.9409 14.8476 31.9409C22.592 31.9409 28.8476 24.9549 28.8476 16.3482C28.8644 7.74156 22.592 0.755615 14.8476 0.755615ZM21.2706 23.2597C21.0197 23.7254 20.4844 23.8558 20.0663 23.5764C16.7712 21.3409 12.6398 20.8379 7.75565 22.0674C7.28731 22.1792 6.81898 21.8625 6.71862 21.3409C6.61826 20.8193 6.90261 20.2976 7.37095 20.1859C12.7067 18.8259 17.2897 19.4034 20.9695 21.9184C21.4044 22.1978 21.5382 22.7939 21.2706 23.2597ZM22.9934 19.0122C22.6756 19.5897 22.0065 19.7574 21.488 19.4221C17.7246 16.8326 11.9874 16.0874 7.53821 17.5964C6.95279 17.7827 6.35064 17.4287 6.18337 16.7953C6.01611 16.1433 6.33391 15.4727 6.91933 15.2864C12.0042 13.5725 18.3267 14.3922 22.6589 17.3542C23.1439 17.6895 23.3112 18.4347 22.9934 19.0122ZM23.1439 14.5785C18.6278 11.5978 11.1846 11.3184 6.86915 12.7714C6.18337 13.0136 5.44741 12.5665 5.22997 11.8027C5.01253 11.0389 5.41396 10.2192 6.09974 9.97706C11.0508 8.30044 19.2801 8.63576 24.4653 12.0635C25.0842 12.4734 25.2849 13.3676 24.9169 14.0569C24.5657 14.7648 23.7628 14.9883 23.1439 14.5785Z" fill="#B1BAED" fill-opacity="0.4"/>
<path d="M50.3822 14.7675C46.3381 13.7114 45.6408 12.9348 45.6408 11.3505C45.6408 9.85951 46.8959 8.86548 48.7645 8.86548C50.5774 8.86548 52.3903 9.64206 54.2868 11.1952C54.3426 11.2574 54.4263 11.2574 54.4821 11.2574C54.5657 11.2574 54.6215 11.1952 54.6494 11.1331L56.6296 8.02677C56.7133 7.90252 56.6854 7.71614 56.5739 7.62295C54.3147 5.60383 51.7767 4.64087 48.8203 4.64087C44.4694 4.64087 41.4293 7.56082 41.4293 11.7233C41.4293 16.1964 44.051 17.7807 48.5972 18.9921C52.4461 19.9861 53.1154 20.8249 53.1154 22.2848C53.1154 23.9312 51.8046 24.9563 49.6849 24.9563C47.3421 24.9563 45.4177 24.0865 43.2701 22.0053C43.2143 21.9431 43.1306 21.9431 43.0749 21.9431C42.9912 21.9431 42.9354 21.9742 42.9075 22.0363L40.7042 24.9563C40.6205 25.0805 40.6205 25.2669 40.7321 25.3601C43.2422 27.8452 46.3102 29.1498 49.6291 29.1498C54.3147 29.1498 57.3548 26.292 57.3548 21.881C57.299 18.1534 55.3188 16.1032 50.3822 14.7675Z" fill="#B1BAED" fill-opacity="0.4"/>
<path d="M67.926 10.3254C65.89 10.3254 64.2165 11.2263 62.8499 13.059V11.0088C62.8499 10.8535 62.7383 10.7293 62.5989 10.7293H59.001C58.8616 10.7293 58.75 10.8535 58.75 11.0088V33.8714C58.75 34.0268 58.8616 34.151 59.001 34.151H62.5989C62.7383 34.151 62.8499 34.0268 62.8499 33.8714V26.6647C64.2165 28.3732 65.89 29.2119 67.926 29.2119C71.6912 29.2119 75.5401 25.9814 75.5401 19.7687C75.5401 13.5871 71.6912 10.3254 67.926 10.3254ZM71.3286 19.7687C71.3286 22.9371 69.5715 25.1116 67.0893 25.1116C64.607 25.1116 62.7662 22.8129 62.7662 19.7687C62.7662 16.7245 64.6349 14.4258 67.0893 14.4258C69.5436 14.4258 71.3286 16.6624 71.3286 19.7687Z" fill="#B1BAED" fill-opacity="0.4"/>
<path d="M85.3282 10.3254C80.4753 10.3254 76.6543 14.519 76.6543 19.8308C76.6543 25.1116 80.4474 29.243 85.2725 29.243C90.1533 29.243 93.9743 25.0805 93.9743 19.7687C93.9743 14.4879 90.1812 10.3254 85.3282 10.3254ZM85.3282 25.1737C82.7344 25.1737 80.7821 22.844 80.7821 19.7998C80.7821 16.7245 82.6786 14.4879 85.2725 14.4879C87.8663 14.4879 89.8465 16.8177 89.8465 19.8929C89.8465 22.9372 87.9499 25.1737 85.3282 25.1737Z" fill="#B1BAED" fill-opacity="0.4"/>
<path d="M104.378 10.6982H100.418V6.194C100.418 6.03868 100.306 5.91443 100.167 5.91443H96.5691C96.4297 5.91443 96.3181 6.03868 96.3181 6.194V10.7292H94.5889C94.4495 10.7292 94.3379 10.8535 94.3379 11.0088V14.4568C94.3379 14.6122 94.4495 14.7364 94.5889 14.7364H96.3181V23.6826C96.3181 27.286 97.9358 29.1187 101.115 29.1187C102.398 29.1187 103.486 28.8081 104.49 28.1868C104.574 28.1247 104.629 28.0315 104.629 27.9383V24.6456C104.629 24.5524 104.574 24.4592 104.518 24.3971C104.434 24.335 104.351 24.335 104.267 24.3971C103.57 24.8009 102.9 24.9562 102.147 24.9562C100.976 24.9562 100.474 24.366 100.474 23.0614V14.7675H104.434C104.574 14.7675 104.685 14.6432 104.685 14.4879V11.0088C104.629 10.8535 104.518 10.6982 104.378 10.6982Z" fill="#B1BAED" fill-opacity="0.4"/>
<path d="M118.212 10.7294V10.1702C118.212 8.52387 118.769 7.80942 120.024 7.80942C120.777 7.80942 121.391 7.96473 122.06 8.21324C122.144 8.2443 122.228 8.21324 122.311 8.18217C122.367 8.12005 122.423 8.02686 122.423 7.93367V4.54777C122.423 4.42351 122.339 4.29926 122.228 4.2682C121.503 4.01969 120.61 3.80225 119.216 3.80225C115.869 3.80225 114.112 5.88349 114.112 9.85959V10.6983H112.382C112.243 10.6983 112.104 10.8226 112.104 10.9779V14.457C112.104 14.6123 112.215 14.7365 112.382 14.7365H114.112V28.5286C114.112 28.684 114.223 28.8082 114.363 28.8082H117.961C118.1 28.8082 118.212 28.684 118.212 28.5286V14.7676H121.586L126.746 28.5597C126.16 30.0197 125.575 30.2993 124.794 30.2993C124.152 30.2993 123.483 30.0818 122.813 29.678C122.758 29.6469 122.674 29.6469 122.59 29.6469C122.535 29.678 122.451 29.7401 122.423 29.8022L121.196 32.7843C121.14 32.9396 121.196 33.095 121.307 33.1571C122.59 33.9337 123.734 34.2443 125.156 34.2443C127.834 34.2443 129.284 32.8465 130.595 29.1499L136.87 11.1332C136.898 11.04 136.898 10.9468 136.842 10.8536C136.787 10.7604 136.703 10.7294 136.619 10.7294H132.854C132.742 10.7294 132.631 10.8226 132.603 10.9157L128.754 23.1547L124.626 10.9157C124.598 10.7915 124.487 10.7294 124.375 10.7294H118.212Z" fill="#B1BAED" fill-opacity="0.4"/>
<path d="M110.208 10.6984H106.61C106.471 10.6984 106.359 10.8226 106.359 10.9779V28.5287C106.359 28.684 106.471 28.8083 106.61 28.8083H110.208C110.348 28.8083 110.459 28.684 110.459 28.5287V11.009C110.459 10.8537 110.348 10.6984 110.208 10.6984Z" fill="#B1BAED" fill-opacity="0.4"/>
<path d="M108.397 2.71497C106.974 2.71497 105.803 4.01963 105.803 5.60385C105.803 7.18808 106.974 8.49274 108.397 8.49274C109.819 8.49274 110.99 7.18808 110.99 5.60385C110.99 4.01963 109.847 2.71497 108.397 2.71497Z" fill="#B1BAED" fill-opacity="0.4"/>
<path d="M140.052 16.3517C138.629 16.3517 137.514 15.0781 137.514 13.5249C137.514 11.9718 138.629 10.6671 140.08 10.6671C141.502 10.6671 142.618 11.9407 142.618 13.4939C142.59 15.047 141.474 16.3517 140.052 16.3517ZM140.052 10.9467C138.741 10.9467 137.765 12.096 137.765 13.5249C137.765 14.9228 138.741 16.0721 140.052 16.0721C141.363 16.0721 142.339 14.9228 142.339 13.4939C142.339 12.096 141.363 10.9467 140.052 10.9467ZM140.61 13.8045L141.335 14.9228H140.721L140.08 13.8977H139.522V14.9228H139.02V11.9407H140.219C140.833 11.9407 141.251 12.2824 141.251 12.9037C141.251 13.3696 140.972 13.6803 140.61 13.8045ZM140.191 12.4688H139.522V13.4007H140.191C140.526 13.4007 140.721 13.2143 140.721 12.9347C140.721 12.6241 140.526 12.4688 140.191 12.4688Z" fill="#B1BAED" fill-opacity="0.4"/>
</svg>
