<svg width="125" height="29" viewBox="0 0 125 29" fill="none" xmlns="http://www.w3.org/2000/svg">
<path d="M62.7073 7.5C57.8652 7.5 54.374 10.65 54.374 15.375C54.374 20.1 58.3038 23.25 63.1459 23.25C66.0713 23.25 68.6503 22.095 70.2468 20.1481L66.8915 18.2144C66.0056 19.1813 64.6591 19.7456 63.1459 19.7456C61.045 19.7456 59.2599 18.6519 58.5977 16.9019H70.8871C70.9836 16.4119 71.0406 15.9044 71.0406 15.3706C71.0406 10.65 67.5494 7.5 62.7073 7.5ZM58.5582 13.8437C59.1064 12.0981 60.6064 11 62.7029 11C64.8038 11 66.3038 12.0981 66.8477 13.8437H58.5582ZM109.935 7.5C105.093 7.5 101.602 10.65 101.602 15.375C101.602 20.1 105.532 23.25 110.374 23.25C113.299 23.25 115.878 22.095 117.475 20.1481L114.12 18.2144C113.234 19.1813 111.887 19.7456 110.374 19.7456C108.273 19.7456 106.488 18.6519 105.826 16.9019H118.115C118.212 16.4119 118.269 15.9044 118.269 15.3706C118.269 10.65 114.777 7.5 109.935 7.5ZM105.791 13.8437C106.339 12.0981 107.839 11 109.935 11C112.036 11 113.536 12.0981 114.08 13.8437H105.791ZM88.6722 15.375C88.6722 18 90.3915 19.75 93.0582 19.75C94.8652 19.75 96.2205 18.9319 96.9178 17.5975L100.286 19.5356C98.8915 21.8544 96.2775 23.25 93.0582 23.25C88.2117 23.25 84.7249 20.1 84.7249 15.375C84.7249 10.65 88.2161 7.5 93.0582 7.5C96.2775 7.5 98.8871 8.89562 100.286 11.2144L96.9178 13.1525C96.2205 11.8181 94.8652 11 93.0582 11C90.3959 11 88.6722 12.75 88.6722 15.375ZM124.848 2.6875V22.8125H120.9V2.6875H124.848ZM17.0538 0.5L33.2599 28.5H0.847656L17.0538 0.5ZM57.5713 2.6875L45.4178 23.6875L33.2643 2.6875H37.8213L45.4178 15.8125L53.0143 2.6875H57.5713ZM83.4091 7.9375V12.1769C82.9705 12.05 82.5056 11.9625 82.0056 11.9625C79.4573 11.9625 77.6196 13.7125 77.6196 16.3375V22.8125H73.6722V7.9375H77.6196V11.9625C77.6196 9.74 80.2117 7.9375 83.4091 7.9375Z" fill="#B1BAED" fill-opacity="0.4"/>
</svg>
