<svg width="21" height="24" viewBox="0 0 21 24" fill="none" xmlns="http://www.w3.org/2000/svg">
<path fill-rule="evenodd" clip-rule="evenodd" d="M3.40803 15.1569C5.21437 14.0547 7.67167 13.2727 10.372 13.2727C13.0724 13.2727 15.5297 14.0547 17.336 15.1569C18.2388 15.7078 19.0093 16.3572 19.5661 17.0621C20.1139 17.7555 20.5175 18.5855 20.5175 19.4727C20.5175 20.4252 20.054 21.1761 19.3872 21.7114C18.7553 22.2187 17.9227 22.5542 17.0374 22.7886C15.2591 23.2596 12.8847 23.4182 10.372 23.4182C7.85934 23.4182 5.48491 23.2596 3.70663 22.7886C2.82134 22.5542 1.98876 22.2187 1.35684 21.7114C0.690035 21.1761 0.226562 20.4252 0.226562 19.4727C0.226562 18.5855 0.630177 17.7555 1.17794 17.0621C1.73472 16.3572 2.50527 15.7078 3.40803 15.1569Z" fill="url(#paint0_linear_2624_6681)"/>
<path fill-rule="evenodd" clip-rule="evenodd" d="M4.73633 6.50917C4.73633 3.39629 7.25981 0.872803 10.3727 0.872803C13.4856 0.872803 16.0091 3.39629 16.0091 6.50917C16.0091 9.62204 13.4856 12.1455 10.3727 12.1455C7.25981 12.1455 4.73633 9.62204 4.73633 6.50917Z" fill="url(#paint1_linear_2624_6681)"/>
<defs>
<linearGradient id="paint0_linear_2624_6681" x1="10.372" y1="13.2727" x2="10.372" y2="23.4182" gradientUnits="userSpaceOnUse">
<stop stop-color="#02AAB0"/>
<stop offset="1" stop-color="#00CDAC"/>
</linearGradient>
<linearGradient id="paint1_linear_2624_6681" x1="10.3727" y1="0.872803" x2="10.3727" y2="12.1455" gradientUnits="userSpaceOnUse">
<stop stop-color="#02AAB0"/>
<stop offset="1" stop-color="#00CDAC"/>
</linearGradient>
</defs>
</svg>
