<svg width="21" height="24" viewBox="0 0 21 24" fill="none" xmlns="http://www.w3.org/2000/svg">
<path fill-rule="evenodd" clip-rule="evenodd" d="M10.372 0.872559C7.25914 0.872559 4.73565 3.39604 4.73565 6.50892C4.73565 9.6218 7.25914 12.1453 10.372 12.1453C13.4849 12.1453 16.0084 9.6218 16.0084 6.50892C16.0084 3.39604 13.4849 0.872559 10.372 0.872559ZM10.372 13.2726C7.67167 13.2726 5.21437 14.0546 3.40803 15.1568C2.50527 15.7076 1.73472 16.3571 1.17794 17.0619C0.630177 17.7554 0.226562 18.5853 0.226562 19.4726C0.226562 20.425 0.690035 21.1759 1.35684 21.7112C1.98876 22.2185 2.82134 22.5541 3.70663 22.7885C5.48491 23.2594 7.85934 23.418 10.372 23.418C12.8847 23.418 15.2591 23.2594 17.0374 22.7885C17.9227 22.5541 18.7553 22.2185 19.3872 21.7112C20.054 21.1759 20.5175 20.425 20.5175 19.4726C20.5175 18.5853 20.1139 17.7554 19.5661 17.0619C19.0093 16.3571 18.2388 15.7076 17.336 15.1568C15.5297 14.0546 13.0724 13.2726 10.372 13.2726Z" fill="#FF5555"/>
</svg>
