<svg width="21" height="22" viewBox="0 0 21 22" fill="none" xmlns="http://www.w3.org/2000/svg">
<path d="M20.1635 7.34271C19.6376 6.08769 18.8727 4.94697 17.9111 3.98412C16.9525 3.01959 15.8138 2.25273 14.5596 1.72708C13.2748 1.18599 11.8943 0.90862 10.5002 0.91146H10.4533C9.03536 0.918491 7.66427 1.19974 6.37286 1.75287C5.12944 2.2839 4.00139 3.05212 3.05177 4.01458C2.09958 4.97527 1.34335 6.11201 0.825208 7.36146C0.287352 8.66075 0.0148188 10.0545 0.0236452 11.4607C0.0306765 13.0872 0.419739 14.7021 1.1463 16.1458V19.7083C1.1463 20.3036 1.62911 20.7865 2.22208 20.7865H5.7799C7.23038 21.5184 8.83101 21.9035 10.4557 21.9115H10.5049C11.9065 21.9115 13.2635 21.6396 14.5432 21.1076C15.791 20.5882 16.9255 19.8303 17.883 18.8763C18.8486 17.9177 19.608 16.7974 20.1401 15.5482C20.6908 14.2544 20.9721 12.8786 20.9791 11.4583C20.9838 10.031 20.7072 8.64583 20.1635 7.34271ZM5.82208 12.5365C5.20333 12.5365 4.69943 12.0326 4.69943 11.4115C4.69943 10.7904 5.20333 10.2865 5.82208 10.2865C6.44083 10.2865 6.94474 10.7904 6.94474 11.4115C6.94474 12.0326 6.44318 12.5365 5.82208 12.5365ZM10.5002 12.5365C9.88146 12.5365 9.37755 12.0326 9.37755 11.4115C9.37755 10.7904 9.88146 10.2865 10.5002 10.2865C11.119 10.2865 11.6229 10.7904 11.6229 11.4115C11.6229 12.0326 11.119 12.5365 10.5002 12.5365ZM15.1783 12.5365C14.5596 12.5365 14.0557 12.0326 14.0557 11.4115C14.0557 10.7904 14.5596 10.2865 15.1783 10.2865C15.7971 10.2865 16.301 10.7904 16.301 11.4115C16.301 12.0326 15.7971 12.5365 15.1783 12.5365Z" fill="url(#paint0_linear_2685_757)"/>
<defs>
<linearGradient id="paint0_linear_2685_757" x1="10.5013" y1="0.911438" x2="10.5013" y2="21.9115" gradientUnits="userSpaceOnUse">
<stop stop-color="#02AAB0"/>
<stop offset="1" stop-color="#00CDAC" stop-opacity="0.8"/>
</linearGradient>
</defs>
</svg>
