<svg width="25" height="25" viewBox="0 0 25 25" fill="none" xmlns="http://www.w3.org/2000/svg">
<path d="M22.1635 8.34271C21.6376 7.08769 20.8727 5.94697 19.9111 4.98412C18.9525 4.01959 17.8138 3.25273 16.5596 2.72708C15.2748 2.18599 13.8943 1.90862 12.5002 1.91146H12.4533C11.0354 1.91849 9.66427 2.19974 8.37286 2.75287C7.12944 3.2839 6.00139 4.05212 5.05177 5.01458C4.09958 5.97527 3.34335 7.11201 2.82521 8.36146C2.28735 9.66075 2.01482 11.0545 2.02365 12.4607C2.03068 14.0872 2.41974 15.7021 3.1463 17.1458V20.7083C3.1463 21.3036 3.62911 21.7865 4.22208 21.7865H7.7799C9.23038 22.5184 10.831 22.9035 12.4557 22.9115H12.5049C13.9065 22.9115 15.2635 22.6396 16.5432 22.1076C17.791 21.5882 18.9255 20.8303 19.883 19.8763C20.8486 18.9177 21.608 17.7974 22.1401 16.5482C22.6908 15.2544 22.9721 13.8786 22.9791 12.4583C22.9838 11.031 22.7072 9.64583 22.1635 8.34271ZM7.82208 13.5365C7.20333 13.5365 6.69943 13.0326 6.69943 12.4115C6.69943 11.7904 7.20333 11.2865 7.82208 11.2865C8.44083 11.2865 8.94474 11.7904 8.94474 12.4115C8.94474 13.0326 8.44318 13.5365 7.82208 13.5365ZM12.5002 13.5365C11.8815 13.5365 11.3776 13.0326 11.3776 12.4115C11.3776 11.7904 11.8815 11.2865 12.5002 11.2865C13.119 11.2865 13.6229 11.7904 13.6229 12.4115C13.6229 13.0326 13.119 13.5365 12.5002 13.5365ZM17.1783 13.5365C16.5596 13.5365 16.0557 13.0326 16.0557 12.4115C16.0557 11.7904 16.5596 11.2865 17.1783 11.2865C17.7971 11.2865 18.301 11.7904 18.301 12.4115C18.301 13.0326 17.7971 13.5365 17.1783 13.5365Z" fill="#FF5555"/>
</svg>
