<svg width="18" height="18" viewBox="0 0 18 18" fill="none" xmlns="http://www.w3.org/2000/svg">
<path d="M9.32989 0.199219C4.57385 0.199219 0.716797 4.05537 0.716797 8.81231C0.71773 10.3681 1.14268 11.8942 1.94596 13.2265L0.793058 17.4254L5.08166 16.2994C6.37573 17.0378 7.83999 17.4259 9.32989 17.4254C14.0868 17.4254 17.943 13.5684 17.943 8.81231C17.943 6.52798 17.0355 4.3372 15.4203 2.72194C13.805 1.10667 11.6142 0.199219 9.32989 0.199219ZM6.3817 4.79466C6.52166 4.79466 6.66611 4.79377 6.78993 4.80005C6.94335 4.80364 7.11112 4.8153 7.27082 5.1688C7.46103 5.58958 7.87553 6.64468 7.92847 6.75145C7.9823 6.85911 8.01909 6.98472 7.94552 7.12469C7.87464 7.26824 7.83785 7.35527 7.73467 7.48177C7.62791 7.60558 7.51038 7.759 7.41437 7.85231C7.30671 7.95908 7.19636 8.07661 7.32017 8.28925C7.44309 8.50278 7.87195 9.2017 8.50626 9.76514C9.32092 10.4937 10.0082 10.7162 10.2217 10.8238C10.4361 10.9315 10.5599 10.9135 10.6829 10.77C10.8103 10.6309 11.2167 10.1509 11.3602 9.9365C11.5002 9.72297 11.6429 9.75975 11.8367 9.82973C12.034 9.90061 13.082 10.4174 13.2964 10.5242C13.5099 10.6309 13.6499 10.6839 13.7037 10.7709C13.7594 10.8606 13.7594 11.2877 13.5817 11.7856C13.405 12.2827 12.5338 12.7636 12.1435 12.7977C11.7496 12.8336 11.3818 12.9753 9.5829 12.2665C7.41168 11.4115 6.04346 9.18914 5.93669 9.04559C5.82903 8.90473 5.06641 7.8891 5.06641 6.84117C5.06641 5.78966 5.61819 5.27466 5.81108 5.06113C5.88261 4.97969 5.97025 4.91396 6.06847 4.8681C6.16668 4.82223 6.27334 4.79723 6.3817 4.79466Z" fill="white"/>
</svg>
