<svg width="20" height="16" viewBox="0 0 20 16" fill="none" xmlns="http://www.w3.org/2000/svg">
<path d="M19.0876 4.38281V12.1273C19.0876 12.9169 18.7845 13.6766 18.2404 14.2505C17.6963 14.8245 16.9524 15.1691 16.1614 15.2138L15.9858 15.2186H3.10173C2.30946 15.2187 1.54721 14.9166 0.971336 14.3743C0.395463 13.832 0.0496264 13.0906 0.004772 12.3023L0 12.1273V4.38281L9.21166 9.19196C9.31413 9.24545 9.42809 9.2734 9.54378 9.2734C9.65946 9.2734 9.77343 9.24545 9.8759 9.19196L19.0876 4.38281Z" fill="white"/>
<path d="M3.10404 2.24526e-08H15.9881C16.757 -9.2278e-05 17.4984 0.284397 18.0687 0.79829C18.639 1.31218 18.9975 2.01885 19.0746 2.78124L9.54609 7.75588L0.0175781 2.78124C0.0915647 2.04913 0.425145 1.36733 0.958356 0.858401C1.49157 0.34947 2.18944 0.0467854 2.92652 0.00475601L3.10404 2.24526e-08H15.9881H3.10404Z" fill="white"/>
</svg>
