<svg width="20" height="16" viewBox="0 0 20 16" fill="none" xmlns="http://www.w3.org/2000/svg">
<path d="M19.0876 4.38269V12.1272C19.0876 12.9168 18.7845 13.6765 18.2404 14.2504C17.6963 14.8243 16.9524 15.169 16.1614 15.2137L15.9858 15.2185H3.10173C2.30946 15.2185 1.54721 14.9164 0.971336 14.3741C0.395463 13.8319 0.0496264 13.0905 0.004772 12.3022L0 12.1272V4.38269L9.21166 9.19183C9.31413 9.24533 9.42809 9.27328 9.54378 9.27328C9.65946 9.27328 9.77343 9.24533 9.8759 9.19183L19.0876 4.38269Z" fill="#B1BAED"/>
<path d="M3.10404 2.24526e-08H15.9881C16.757 -9.2278e-05 17.4984 0.284397 18.0687 0.79829C18.639 1.31218 18.9975 2.01885 19.0746 2.78124L9.54609 7.75588L0.0175781 2.78124C0.0915647 2.04913 0.425145 1.36733 0.958356 0.858401C1.49157 0.34947 2.18944 0.0467854 2.92652 0.00475601L3.10404 2.24526e-08H15.9881H3.10404Z" fill="#B1BAED"/>
</svg>
