<svg width="44" height="44" viewBox="0 0 44 44" fill="none" xmlns="http://www.w3.org/2000/svg">
<g filter="url(#filter0_d_2651_8967)">
<circle cx="22" cy="20" r="14" fill="#1B204E"/>
<circle cx="22" cy="20" r="13.5" stroke="url(#paint0_linear_2651_8967)"/>
</g>
<path d="M20.5 14.2083C20.573 14.2974 20.6178 14.4062 20.6284 14.5209C20.6391 14.6356 20.6153 14.7508 20.56 14.8518C20.1262 15.6478 19.8997 16.5403 19.9015 17.4468C19.9015 20.4626 22.36 22.9046 25.39 22.9046C25.786 22.9041 26.1693 22.8641 26.5398 22.7846C26.6531 22.7603 26.7711 22.7698 26.879 22.812C26.987 22.8541 27.0803 22.927 27.1473 23.0216C27.2181 23.12 27.2543 23.2392 27.2501 23.3604C27.2459 23.4816 27.2015 23.598 27.124 23.6913C26.5357 24.4138 25.7936 24.996 24.9518 25.3954C24.11 25.7947 23.1897 26.0012 22.258 25.9998C18.8005 25.9998 16 23.2143 16 19.7823C16 17.1993 17.5855 14.9838 19.843 14.0448C19.9554 13.997 20.0803 13.9872 20.1989 14.0166C20.3174 14.0461 20.4231 14.1134 20.5 14.2083Z" fill="#63FEFE"/>
<path d="M24.0961 16.3607C24.1068 16.3283 24.1276 16.3 24.1553 16.28C24.183 16.2599 24.2164 16.2491 24.2506 16.2491C24.2848 16.2491 24.3181 16.2599 24.3459 16.28C24.3736 16.3 24.3943 16.3283 24.4051 16.3607L24.6953 17.2322C24.8251 17.6207 25.1296 17.9252 25.5181 18.055L26.3896 18.3452C26.4221 18.356 26.4503 18.3767 26.4704 18.4044C26.4904 18.4322 26.5012 18.4655 26.5012 18.4997C26.5012 18.5339 26.4904 18.5673 26.4704 18.595C26.4503 18.6228 26.4221 18.6435 26.3896 18.6542L25.5181 18.9445C25.3264 19.0081 25.1522 19.1156 25.0093 19.2585C24.8665 19.4013 24.759 19.5755 24.6953 19.7672L24.4051 20.6387C24.3943 20.6712 24.3736 20.6995 24.3459 20.7195C24.3181 20.7395 24.2848 20.7503 24.2506 20.7503C24.2164 20.7503 24.183 20.7395 24.1553 20.7195C24.1276 20.6995 24.1068 20.6712 24.0961 20.6387L23.8058 19.7672C23.7422 19.5755 23.6347 19.4013 23.4919 19.2585C23.349 19.1156 23.1748 19.0081 22.9831 18.9445L22.1116 18.6542C22.0791 18.6435 22.0508 18.6228 22.0308 18.595C22.0108 18.5673 22 18.5339 22 18.4997C22 18.4655 22.0108 18.4322 22.0308 18.4044C22.0508 18.3767 22.0791 18.356 22.1116 18.3452L22.9831 18.055C23.1748 17.9914 23.349 17.8838 23.4919 17.741C23.6347 17.5982 23.7422 17.424 23.8058 17.2322L24.0961 16.3607ZM26.3978 14.074C26.4052 14.0526 26.4191 14.0341 26.4375 14.021C26.4559 14.0079 26.478 14.0009 26.5006 14.0009C26.5232 14.0009 26.5452 14.0079 26.5636 14.021C26.5821 14.0341 26.5959 14.0526 26.6033 14.074L26.7968 14.6545C26.8831 14.914 27.0863 15.1172 27.3458 15.2035L27.9263 15.397C27.9477 15.4044 27.9662 15.4183 27.9793 15.4367C27.9924 15.4551 27.9995 15.4771 27.9995 15.4997C27.9995 15.5223 27.9924 15.5444 27.9793 15.5628C27.9662 15.5812 27.9477 15.5951 27.9263 15.6025L27.3458 15.796C27.2181 15.8387 27.102 15.9106 27.0067 16.0058C26.9114 16.1011 26.8396 16.2172 26.7968 16.345L26.6033 16.9255C26.5959 16.9468 26.5821 16.9654 26.5636 16.9785C26.5452 16.9916 26.5232 16.9986 26.5006 16.9986C26.478 16.9986 26.4559 16.9916 26.4375 16.9785C26.4191 16.9654 26.4052 16.9468 26.3978 16.9255L26.2043 16.345C26.1616 16.2172 26.0897 16.1011 25.9945 16.0058C25.8992 15.9106 25.7831 15.8387 25.6553 15.796L25.0748 15.6025C25.0535 15.5951 25.035 15.5812 25.0219 15.5628C25.0088 15.5444 25.0017 15.5223 25.0017 15.4997C25.0017 15.4771 25.0088 15.4551 25.0219 15.4367C25.035 15.4183 25.0535 15.4044 25.0748 15.397L25.6553 15.2035C25.9148 15.1172 26.1181 14.914 26.2043 14.6545L26.3978 14.074Z" fill="#63FEFE"/>
<defs>
<filter id="filter0_d_2651_8967" x="0" y="0" width="44" height="44" filterUnits="userSpaceOnUse" color-interpolation-filters="sRGB">
<feFlood flood-opacity="0" result="BackgroundImageFix"/>
<feColorMatrix in="SourceAlpha" type="matrix" values="0 0 0 0 0 0 0 0 0 0 0 0 0 0 0 0 0 0 127 0" result="hardAlpha"/>
<feOffset dy="2"/>
<feGaussianBlur stdDeviation="4"/>
<feComposite in2="hardAlpha" operator="out"/>
<feColorMatrix type="matrix" values="0 0 0 0 0 0 0 0 0 0 0 0 0 0 0 0 0 0 0.16 0"/>
<feBlend mode="normal" in2="BackgroundImageFix" result="effect1_dropShadow_2651_8967"/>
<feBlend mode="normal" in="SourceGraphic" in2="effect1_dropShadow_2651_8967" result="shape"/>
</filter>
<linearGradient id="paint0_linear_2651_8967" x1="8" y1="20" x2="36" y2="20" gradientUnits="userSpaceOnUse">
<stop stop-color="#3461FF"/>
<stop offset="0.48" stop-color="#8454EB"/>
<stop offset="1" stop-color="#3461FF"/>
</linearGradient>
</defs>
</svg>
