<svg width="45" height="45" viewBox="0 0 45 45" fill="none" xmlns="http://www.w3.org/2000/svg">
<g filter="url(#filter0_d_2651_8967)">
<circle cx="14" cy="14" r="14" transform="matrix(0.258819 0.965926 0.965926 -0.258819 5 11)" fill="#1B204E"/>
<circle cx="14" cy="14" r="13.5" transform="matrix(0.258819 0.965926 0.965926 -0.258819 5 11)" stroke="url(#paint0_linear_2651_8967)"/>
</g>
<path d="M16.3659 21.2928C16.4708 21.3402 16.5875 21.3553 16.7011 21.3359C16.8146 21.3166 16.9197 21.2637 17.003 21.1842C17.6596 20.5591 18.463 20.1093 19.3391 19.8765C22.2521 19.0959 25.2472 20.8386 26.0315 23.7654C26.1335 24.148 26.194 24.5286 26.2131 24.907C26.219 25.0228 26.2588 25.1342 26.3274 25.2276C26.3961 25.321 26.4906 25.3923 26.5993 25.4325C26.7127 25.4754 26.8372 25.4795 26.9532 25.4441C27.0692 25.4086 27.1701 25.3357 27.2402 25.2367C27.7859 24.4814 28.1561 23.614 28.324 22.6975C28.4919 21.781 28.4531 20.8386 28.2106 19.939C27.3158 16.5993 23.9003 14.6152 20.5853 15.5034C18.0903 16.172 16.3606 18.2768 16.0379 20.7005C16.0209 20.8214 16.0437 20.9446 16.1028 21.0515C16.162 21.1583 16.2543 21.243 16.3659 21.2928Z" fill="#63FEFE"/>
<defs>
<filter id="filter0_d_2651_8967" x="0.142578" y="0.895996" width="44.0078" height="44.007" filterUnits="userSpaceOnUse" color-interpolation-filters="sRGB">
<feFlood flood-opacity="0" result="BackgroundImageFix"/>
<feColorMatrix in="SourceAlpha" type="matrix" values="0 0 0 0 0 0 0 0 0 0 0 0 0 0 0 0 0 0 127 0" result="hardAlpha"/>
<feOffset dy="2"/>
<feGaussianBlur stdDeviation="4"/>
<feComposite in2="hardAlpha" operator="out"/>
<feColorMatrix type="matrix" values="0 0 0 0 0 0 0 0 0 0 0 0 0 0 0 0 0 0 0.16 0"/>
<feBlend mode="normal" in2="BackgroundImageFix" result="effect1_dropShadow_2651_8967"/>
<feBlend mode="normal" in="SourceGraphic" in2="effect1_dropShadow_2651_8967" result="shape"/>
</filter>
<linearGradient id="paint0_linear_2651_8967" x1="0" y1="14" x2="28" y2="14" gradientUnits="userSpaceOnUse">
<stop stop-color="#3461FF"/>
<stop offset="0.48" stop-color="#8454EB"/>
<stop offset="1" stop-color="#3461FF"/>
</linearGradient>
</defs>
</svg>
