<svg width="29" height="28" viewBox="0 0 29 28" fill="none" xmlns="http://www.w3.org/2000/svg">
<path d="M28.0976 0.218262V27.4115H0.904297V0.218262H28.0976Z" fill="white" fill-opacity="0.01"/>
<path fill-rule="evenodd" clip-rule="evenodd" d="M9.69331 7.4055C9.25083 6.96302 8.53342 6.96302 8.09093 7.4055C7.64845 7.84799 7.64845 8.5654 8.09093 9.00788L8.75455 9.6715L9.11011 10.0268C9.55259 10.4693 10.27 10.4693 10.7125 10.0268C11.1506 9.58874 11.1549 8.88114 10.7255 8.4377L9.69331 7.4055ZM11.9593 6.46674L11.2957 5.80312C9.96824 4.47567 7.81601 4.47567 6.48855 5.80312C5.1611 7.13058 5.1611 9.28281 6.48855 10.6103L17.7052 21.8269C19.0327 23.1544 21.1849 23.1544 22.5123 21.8269C23.8398 20.4995 23.8398 18.3472 22.5123 17.0198L12.3375 6.84492C12.33 6.83728 12.3224 6.82967 12.3149 6.82209L11.9593 6.46674Z" fill="#FF5555"/>
<path d="M17.0055 3.0522L17.0096 3.0604C17.3124 3.66848 17.8195 4.19088 18.4831 4.52401L18.4891 4.527C18.8004 4.68194 19.0325 4.94974 19.0328 5.31605C19.033 5.68272 18.8007 5.95095 18.4891 6.10606L18.4831 6.10905C17.8195 6.44218 17.3124 6.96455 17.0096 7.57266L17.0055 7.58092C16.8464 7.90229 16.5812 8.14922 16.2 8.14915C15.8189 8.14909 15.5538 7.90223 15.3948 7.58098L15.3907 7.57271C15.0879 6.96462 14.5807 6.44218 13.9171 6.10905L13.9112 6.10608C13.5995 5.95092 13.3671 5.68249 13.3675 5.31565C13.3679 4.94953 13.6 4.68194 13.9111 4.52704L13.9171 4.52402C14.5808 4.19085 15.0872 3.66971 15.3907 3.06039L15.3948 3.05212C15.5538 2.73085 15.8189 2.48397 16.1999 2.48389C16.5812 2.4838 16.8464 2.73078 17.0055 3.0522Z" fill="#FF5555"/>
<path d="M5.43226 14.0903C5.64034 13.6167 6.01509 13.248 6.56872 13.2479C7.12263 13.2478 7.49765 13.6166 7.7058 14.0904C8.07833 14.9383 8.70272 15.6725 9.51238 16.1305C9.91876 16.3589 10.2159 16.7248 10.2161 17.213C10.2164 17.6965 9.92332 18.0666 9.51905 18.293C8.70998 18.7461 8.08398 19.4811 7.71093 20.3251C7.49965 20.8031 7.13137 21.1794 6.56878 21.1793C6.0064 21.1792 5.63834 20.803 5.42711 20.3252C5.04419 19.4589 4.42177 18.7471 3.6256 18.2967C3.21873 18.068 2.92141 17.7011 2.92188 17.2125C2.92234 16.7246 3.21943 16.3589 3.6256 16.1305C4.42262 15.6797 5.04463 14.9673 5.42709 14.102L5.43226 14.0903Z" fill="#FF5555"/>
<path d="M21.9464 8.61037L21.9432 8.60381C21.6546 8.02068 20.9432 8.02062 20.6546 8.60374L20.6513 8.61036C20.4086 9.09781 20.0034 9.51473 19.4725 9.78126L19.4676 9.78368C18.9081 10.0623 18.9081 10.7684 19.4677 11.0469L19.4725 11.0493C20.0033 11.3158 20.4091 11.7337 20.6513 12.2202L20.6546 12.2268C20.9432 12.8099 21.6545 12.8099 21.9431 12.2268L21.9464 12.2202C22.1887 11.7337 22.5944 11.3158 23.1253 11.0493L23.1301 11.0469C23.6896 10.7683 23.6896 10.0622 23.13 9.78365L23.1252 9.78125C22.5944 9.51475 22.1887 9.09683 21.9464 8.61037Z" fill="#FF5555"/>
</svg>
