<svg width="29" height="28" viewBox="0 0 29 28" fill="none" xmlns="http://www.w3.org/2000/svg">
<path d="M28.0976 0.218201V27.4115H0.904297V0.218201H28.0976Z" fill="white" fill-opacity="0.01"/>
<path fill-rule="evenodd" clip-rule="evenodd" d="M9.69331 7.40538C9.25083 6.9629 8.53342 6.9629 8.09093 7.40538C7.64845 7.84787 7.64845 8.56528 8.09093 9.00776L8.75455 9.67138L9.11011 10.0267C9.55259 10.4692 10.27 10.4692 10.7125 10.0267C11.1506 9.58862 11.1549 8.88102 10.7255 8.43758L9.69331 7.40538ZM11.9593 6.46662L11.2957 5.803C9.96824 4.47555 7.81601 4.47555 6.48855 5.803C5.1611 7.13046 5.1611 9.28268 6.48855 10.6101L17.7052 21.8268C19.0327 23.1543 21.1849 23.1543 22.5123 21.8268C23.8398 20.4993 23.8398 18.3471 22.5123 17.0197L12.3375 6.84479C12.33 6.83716 12.3224 6.82955 12.3149 6.82196L11.9593 6.46662Z" fill="url(#paint0_linear_2624_6213)"/>
<path d="M17.0055 3.05208L17.0096 3.06028C17.3124 3.66836 17.8195 4.19076 18.4831 4.52389L18.4891 4.52688C18.8004 4.68182 19.0325 4.94961 19.0328 5.31592C19.033 5.6826 18.8007 5.95082 18.4891 6.10593L18.4831 6.10892C17.8195 6.44206 17.3124 6.96443 17.0096 7.57254L17.0055 7.58079C16.8464 7.90217 16.5812 8.1491 16.2 8.14903C15.8189 8.14896 15.5538 7.90211 15.3948 7.58086L15.3907 7.57259C15.0879 6.9645 14.5807 6.44206 13.9171 6.10892L13.9112 6.10596C13.5995 5.9508 13.3671 5.68237 13.3675 5.31552C13.3679 4.94941 13.6 4.68182 13.9111 4.52692L13.9171 4.5239C14.5808 4.19073 15.0872 3.66959 15.3907 3.06027L15.3948 3.05199C15.5538 2.73072 15.8189 2.48385 16.1999 2.48376C16.5812 2.48368 16.8464 2.73066 17.0055 3.05208Z" fill="url(#paint1_linear_2624_6213)"/>
<path d="M5.43226 14.0902C5.64034 13.6166 6.01509 13.2479 6.56872 13.2478C7.12263 13.2476 7.49765 13.6165 7.7058 14.0903C8.07833 14.9382 8.70272 15.6724 9.51238 16.1303C9.91876 16.3588 10.2159 16.7247 10.2161 17.2129C10.2164 17.6964 9.92332 18.0665 9.51905 18.2929C8.70998 18.7459 8.08398 19.481 7.71093 20.325C7.49965 20.803 7.13137 21.1793 6.56878 21.1791C6.0064 21.179 5.63834 20.8029 5.42711 20.3251C5.04419 19.4588 4.42177 18.7469 3.6256 18.2966C3.21873 18.0679 2.92141 17.701 2.92188 17.2124C2.92234 16.7245 3.21943 16.3588 3.6256 16.1303C4.42262 15.6796 5.04463 14.9672 5.42709 14.1019L5.43226 14.0902Z" fill="url(#paint2_linear_2624_6213)"/>
<path d="M21.9464 8.61025L21.9432 8.60368C21.6546 8.02056 20.9432 8.0205 20.6546 8.60361L20.6513 8.61024C20.4086 9.09769 20.0034 9.5146 19.4725 9.78114L19.4676 9.78356C18.9081 10.0621 18.9081 10.7682 19.4677 11.0468L19.4725 11.0492C20.0033 11.3157 20.4091 11.7336 20.6513 12.2201L20.6546 12.2267C20.9432 12.8097 21.6545 12.8097 21.9431 12.2267L21.9464 12.22C22.1887 11.7336 22.5944 11.3157 23.1253 11.0492L23.1301 11.0468C23.6896 10.7682 23.6896 10.0621 23.13 9.78352L23.1252 9.78113C22.5944 9.51463 22.1887 9.09671 21.9464 8.61025Z" fill="url(#paint3_linear_2624_6213)"/>
<defs>
<linearGradient id="paint0_linear_2624_6213" x1="2.92188" y1="12.6531" x2="23.5497" y2="12.6531" gradientUnits="userSpaceOnUse">
<stop stop-color="#02AAB0"/>
<stop offset="1" stop-color="#00CDAC"/>
</linearGradient>
<linearGradient id="paint1_linear_2624_6213" x1="2.92188" y1="12.6531" x2="23.5497" y2="12.6531" gradientUnits="userSpaceOnUse">
<stop stop-color="#02AAB0"/>
<stop offset="1" stop-color="#00CDAC"/>
</linearGradient>
<linearGradient id="paint2_linear_2624_6213" x1="2.92188" y1="12.6531" x2="23.5497" y2="12.6531" gradientUnits="userSpaceOnUse">
<stop stop-color="#02AAB0"/>
<stop offset="1" stop-color="#00CDAC"/>
</linearGradient>
<linearGradient id="paint3_linear_2624_6213" x1="2.92188" y1="12.6531" x2="23.5497" y2="12.6531" gradientUnits="userSpaceOnUse">
<stop stop-color="#02AAB0"/>
<stop offset="1" stop-color="#00CDAC"/>
</linearGradient>
</defs>
</svg>
