<svg width="20" height="19" viewBox="0 0 20 19" fill="none" xmlns="http://www.w3.org/2000/svg">
<g clip-path="url(#clip0_2624_6317)">
<path d="M18.0373 1.1875H13.2932C12.311 1.1875 11.5141 1.98535 11.5141 2.96875V7.71875C11.5141 8.70215 12.311 9.5 13.2932 9.5H16.2582V11.875C16.2582 13.185 15.1945 14.25 13.8862 14.25H13.5897C13.0967 14.25 12.7002 14.6471 12.7002 15.1406V16.9219C12.7002 17.4154 13.0967 17.8125 13.5897 17.8125H13.8862C17.1626 17.8125 19.8163 15.1555 19.8163 11.875V2.96875C19.8163 1.98535 19.0195 1.1875 18.0373 1.1875ZM7.36301 1.1875H2.61889C1.63671 1.1875 0.839844 1.98535 0.839844 2.96875V7.71875C0.839844 8.70215 1.63671 9.5 2.61889 9.5H5.58397V11.875C5.58397 13.185 4.52025 14.25 3.21191 14.25H2.9154C2.42245 14.25 2.02587 14.6471 2.02587 15.1406V16.9219C2.02587 17.4154 2.42245 17.8125 2.9154 17.8125H3.21191C6.48832 17.8125 9.14206 15.1555 9.14206 11.875V2.96875C9.14206 1.98535 8.34519 1.1875 7.36301 1.1875Z" fill="#B1BAED"/>
</g>
<defs>
<clipPath id="clip0_2624_6317">
<rect width="18.9765" height="19" fill="white" transform="translate(0.839844)"/>
</clipPath>
</defs>
</svg>
