<svg width="44" height="44" viewBox="0 0 44 44" fill="none" xmlns="http://www.w3.org/2000/svg">
<g filter="url(#filter0_d_2651_8958)">
<circle cx="22" cy="20" r="14" fill="white"/>
</g>
<path d="M30 12V28H14V12H30Z" fill="white" fill-opacity="0.01"/>
<path fill-rule="evenodd" clip-rule="evenodd" d="M21.3327 14.0002C21.3327 13.632 21.6312 13.3335 21.9993 13.3335C22.3675 13.3335 22.666 13.632 22.666 14.0002V14.6668C22.666 15.035 22.3675 15.3335 21.9993 15.3335C21.6312 15.3335 21.3327 15.035 21.3327 14.6668V14.0002ZM21.3327 25.3335C21.3327 24.9653 21.6312 24.6668 21.9993 24.6668C22.3675 24.6668 22.666 24.9653 22.666 25.3335V26.0002C22.666 26.3684 22.3675 26.6668 21.9993 26.6668C21.6312 26.6668 21.3327 26.3684 21.3327 26.0002V25.3335ZM15.3327 20.0002C15.3327 20.3684 15.6312 20.6668 15.9993 20.6668H16.666C17.0342 20.6668 17.3327 20.3684 17.3327 20.0002C17.3327 19.632 17.0342 19.3335 16.666 19.3335H15.9993C15.6312 19.3335 15.3327 19.632 15.3327 20.0002ZM27.3327 20.6668C26.9645 20.6668 26.666 20.3684 26.666 20.0002C26.666 19.632 26.9645 19.3335 27.3327 19.3335H27.9993C28.3675 19.3335 28.666 19.632 28.666 20.0002C28.666 20.3684 28.3675 20.6668 27.9993 20.6668H27.3327ZM18.2281 15.2861C17.9677 15.0257 17.5456 15.0257 17.2853 15.2861C17.0249 15.5464 17.0249 15.9685 17.2853 16.2289L17.7567 16.7003C18.017 16.9606 18.4392 16.9606 18.6995 16.7003C18.9599 16.4399 18.9599 16.0178 18.6995 15.7575L18.2281 15.2861ZM25.2992 24.2428C25.0389 23.9825 25.0389 23.5603 25.2992 23.3C25.5596 23.0396 25.9817 23.0396 26.242 23.3L26.7134 23.7714C26.9738 24.0318 26.9738 24.4539 26.7134 24.7142C26.4531 24.9746 26.031 24.9746 25.7706 24.7142L25.2992 24.2428ZM17.7567 23.3L17.2853 23.7714C17.0249 24.0318 17.0249 24.4539 17.2853 24.7142C17.5456 24.9746 17.9677 24.9746 18.2281 24.7142L18.6995 24.2428C18.9598 23.9825 18.9598 23.5604 18.6995 23.3C18.4391 23.0397 18.017 23.0397 17.7567 23.3ZM26.242 16.7003C25.9816 16.9607 25.5595 16.9607 25.2992 16.7003C25.0388 16.44 25.0388 16.0178 25.2992 15.7575L25.7706 15.2861C26.0309 15.0257 26.453 15.0257 26.7134 15.2861C26.9737 15.5464 26.9737 15.9686 26.7134 16.2289L26.242 16.7003ZM21.9993 16.0002C19.7902 16.0002 17.9993 17.791 17.9993 20.0002C17.9993 22.2093 19.7902 24.0002 21.9993 24.0002C24.2085 24.0002 25.9993 22.2093 25.9993 20.0002C25.9993 17.791 24.2085 16.0002 21.9993 16.0002Z" fill="#FF5555"/>
<defs>
<filter id="filter0_d_2651_8958" x="0" y="0" width="44" height="44" filterUnits="userSpaceOnUse" color-interpolation-filters="sRGB">
<feFlood flood-opacity="0" result="BackgroundImageFix"/>
<feColorMatrix in="SourceAlpha" type="matrix" values="0 0 0 0 0 0 0 0 0 0 0 0 0 0 0 0 0 0 127 0" result="hardAlpha"/>
<feOffset dy="2"/>
<feGaussianBlur stdDeviation="4"/>
<feComposite in2="hardAlpha" operator="out"/>
<feColorMatrix type="matrix" values="0 0 0 0 0 0 0 0 0 0 0 0 0 0 0 0 0 0 0.16 0"/>
<feBlend mode="normal" in2="BackgroundImageFix" result="effect1_dropShadow_2651_8958"/>
<feBlend mode="normal" in="SourceGraphic" in2="effect1_dropShadow_2651_8958" result="shape"/>
</filter>
</defs>
</svg>
