<svg width="51" height="51" viewBox="0 0 51 51" fill="none" xmlns="http://www.w3.org/2000/svg">
<g clip-path="url(#clip0_2616_4808)">
<path d="M20.1512 0.864262C10.4441 2.75879 2.62186 10.5615 0.707792 20.2393C-2.90549 38.501 13.5691 52.1143 25.9812 50.1904C30.0047 49.5654 31.9773 44.8584 30.1316 41.2354C27.8758 36.8018 31.0984 31.626 36.0789 31.626H43.8621C47.3582 31.626 50.1902 28.7354 50.2 25.249C50.1512 9.8584 36.1472 -2.25097 20.1512 0.864262ZM9.57498 31.626C7.84646 31.626 6.44998 30.2295 6.44998 28.501C6.44998 26.7725 7.84646 25.376 9.57498 25.376C11.3035 25.376 12.7 26.7725 12.7 28.501C12.7 30.2295 11.3035 31.626 9.57498 31.626ZM12.7 19.126C10.9715 19.126 9.57498 17.7295 9.57498 16.001C9.57498 14.2725 10.9715 12.876 12.7 12.876C14.4285 12.876 15.825 14.2725 15.825 16.001C15.825 17.7295 14.4285 19.126 12.7 19.126ZM25.2 12.876C23.4715 12.876 22.075 11.4795 22.075 9.75098C22.075 8.02247 23.4715 6.62598 25.2 6.62598C26.9285 6.62598 28.325 8.02247 28.325 9.75098C28.325 11.4795 26.9285 12.876 25.2 12.876ZM37.7 19.126C35.9715 19.126 34.575 17.7295 34.575 16.001C34.575 14.2725 35.9715 12.876 37.7 12.876C39.4285 12.876 40.825 14.2725 40.825 16.001C40.825 17.7295 39.4285 19.126 37.7 19.126Z" fill="white"/>
</g>
<defs>
<clipPath id="clip0_2616_4808">
<rect width="50" height="50" fill="white" transform="translate(0.199219 0.375977)"/>
</clipPath>
</defs>
</svg>
