<svg width="29" height="29" viewBox="0 0 29 29" fill="none" xmlns="http://www.w3.org/2000/svg">
<path fill-rule="evenodd" clip-rule="evenodd" d="M8.91553 5.52738C8.91553 4.50895 9.3201 3.53223 10.0402 2.81209C10.7604 2.09195 11.7371 1.68738 12.7555 1.68738H16.2464C17.2649 1.68738 18.2416 2.09195 18.9617 2.81209C19.6819 3.53223 20.0864 4.50895 20.0864 5.52738V6.14597C20.8852 6.22277 21.6783 6.31632 22.4686 6.42524C24.3495 6.68915 25.6719 8.32011 25.6719 10.1633V15.0073C25.6719 16.5796 24.7028 18.0667 23.1166 18.5541C20.3908 19.3905 17.4976 19.8401 14.501 19.8401C11.5044 19.8401 8.60973 19.3905 5.88542 18.5541C4.29915 18.0667 3.33008 16.5796 3.33008 15.0073V10.1633C3.33008 8.31871 4.65243 6.68776 6.53334 6.42664C7.32536 6.31647 8.1196 6.2229 8.91553 6.14597V5.52738ZM17.9919 5.52738V5.9812C15.6667 5.84128 13.3352 5.84128 11.0101 5.9812V5.52738C11.0101 4.56389 11.792 3.78192 12.7555 3.78192H16.2464C17.2099 3.78192 17.9919 4.56389 17.9919 5.52738ZM14.501 14.2547C14.1306 14.2547 13.7755 14.4018 13.5136 14.6636C13.2517 14.9255 13.1046 15.2807 13.1046 15.651V15.665C13.1046 16.0353 13.2517 16.3905 13.5136 16.6524C13.7755 16.9142 14.1306 17.0613 14.501 17.0613H14.515C14.8853 17.0613 15.2405 16.9142 15.5023 16.6524C15.7642 16.3905 15.9113 16.0353 15.9113 15.665V15.651C15.9113 15.2807 15.7642 14.9255 15.5023 14.6636C15.2405 14.4018 14.8853 14.2547 14.515 14.2547H14.501Z" fill="url(#paint0_linear_2624_6209)"/>
<path d="M4.72656 21.3134V20.3583C4.9025 20.4323 5.08264 20.4979 5.27114 20.5566C8.19234 21.453 11.2937 21.9348 14.5011 21.9348C17.7086 21.9348 20.8099 21.453 23.7311 20.5566C23.9196 20.4993 24.0997 20.4323 24.2757 20.3583V21.3134C24.2757 23.1943 22.9002 24.8462 20.976 25.064C16.673 25.5484 12.3292 25.5484 8.02617 25.064C6.10198 24.8462 4.72656 23.1943 4.72656 21.3134Z" fill="url(#paint1_linear_2624_6209)"/>
<defs>
<linearGradient id="paint0_linear_2624_6209" x1="3.33008" y1="10.7637" x2="25.6719" y2="10.7637" gradientUnits="userSpaceOnUse">
<stop stop-color="#02AAB0"/>
<stop offset="1" stop-color="#00CDAC"/>
</linearGradient>
<linearGradient id="paint1_linear_2624_6209" x1="4.72656" y1="22.8928" x2="24.2757" y2="22.8928" gradientUnits="userSpaceOnUse">
<stop stop-color="#02AAB0"/>
<stop offset="1" stop-color="#00CDAC"/>
</linearGradient>
</defs>
</svg>
