<svg width="29" height="29" viewBox="0 0 29 29" fill="none" xmlns="http://www.w3.org/2000/svg">
<path fill-rule="evenodd" clip-rule="evenodd" d="M8.91553 5.5275C8.91553 4.50907 9.3201 3.53235 10.0402 2.81221C10.7604 2.09207 11.7371 1.6875 12.7555 1.6875H16.2464C17.2649 1.6875 18.2416 2.09207 18.9617 2.81221C19.6819 3.53235 20.0864 4.50907 20.0864 5.5275V6.14609C20.8852 6.22289 21.6783 6.31645 22.4686 6.42536C24.3495 6.68928 25.6719 8.32023 25.6719 10.1634V15.0074C25.6719 16.5797 24.7028 18.0668 23.1166 18.5542C20.3908 19.3906 17.4976 19.8402 14.501 19.8402C11.5044 19.8402 8.60973 19.3906 5.88542 18.5542C4.29915 18.0668 3.33008 16.5797 3.33008 15.0074V10.1634C3.33008 8.31883 4.65243 6.68788 6.53334 6.42676C7.32536 6.3166 8.1196 6.22302 8.91553 6.14609V5.5275ZM17.9919 5.5275V5.98132C15.6667 5.84141 13.3352 5.84141 11.0101 5.98132V5.5275C11.0101 4.56401 11.792 3.78205 12.7555 3.78205H16.2464C17.2099 3.78205 17.9919 4.56401 17.9919 5.5275ZM14.501 14.2548C14.1306 14.2548 13.7755 14.4019 13.5136 14.6638C13.2517 14.9256 13.1046 15.2808 13.1046 15.6511V15.6651C13.1046 16.0354 13.2517 16.3906 13.5136 16.6525C13.7755 16.9143 14.1306 17.0615 14.501 17.0615H14.515C14.8853 17.0615 15.2405 16.9143 15.5023 16.6525C15.7642 16.3906 15.9113 16.0354 15.9113 15.6651V15.6511C15.9113 15.2808 15.7642 14.9256 15.5023 14.6638C15.2405 14.4019 14.8853 14.2548 14.515 14.2548H14.501Z" fill="#FF5555"/>
<path d="M4.72656 21.3135V20.3584C4.9025 20.4324 5.08264 20.498 5.27114 20.5567C8.19234 21.4531 11.2937 21.9349 14.5011 21.9349C17.7086 21.9349 20.8099 21.4531 23.7311 20.5567C23.9196 20.4994 24.0997 20.4324 24.2757 20.3584V21.3135C24.2757 23.1944 22.9002 24.8463 20.976 25.0641C16.673 25.5485 12.3292 25.5485 8.02617 25.0641C6.10198 24.8463 4.72656 23.1944 4.72656 21.3135Z" fill="#FF5555"/>
</svg>
